<svg id="Layer_1" enable-background="new 0 0 511.449 511.449" height="512" viewBox="0 0 511.449 511.449" width="30" xmlns="http://www.w3.org/2000/svg"><path d="m436.508 74.941c-99.913-99.913-261.639-99.928-361.566 0-99.914 99.912-99.93 261.64 0 361.567 99.913 99.913 261.639 99.927 361.566 0 99.914-99.912 99.929-261.64 0-361.567zm-266.117 287.45c-11.782 0-21.333-9.551-21.333-21.333s9.551-21.333 21.333-21.333 21.333 9.551 21.333 21.333c.001 11.782-9.551 21.333-21.333 21.333zm0-85.333c-11.782 0-21.333-9.551-21.333-21.333s9.551-21.333 21.333-21.333 21.333 9.551 21.333 21.333c.001 11.782-9.551 21.333-21.333 21.333zm0-85.333c-11.782 0-21.333-9.551-21.333-21.333s9.551-21.333 21.333-21.333 21.333 9.551 21.333 21.333c.001 11.781-9.551 21.333-21.333 21.333zm85.334 170.666c-11.782 0-21.333-9.551-21.333-21.333s9.551-21.333 21.333-21.333 21.333 9.551 21.333 21.333-9.551 21.333-21.333 21.333zm0-85.333c-11.782 0-21.333-9.551-21.333-21.333s9.551-21.333 21.333-21.333 21.333 9.551 21.333 21.333-9.551 21.333-21.333 21.333zm0-85.333c-11.782 0-21.333-9.551-21.333-21.333s9.551-21.333 21.333-21.333 21.333 9.551 21.333 21.333c0 11.781-9.551 21.333-21.333 21.333zm85.333 170.666c-11.782 0-21.333-9.551-21.333-21.333s9.551-21.333 21.333-21.333 21.333 9.551 21.333 21.333-9.551 21.333-21.333 21.333zm0-85.333c-11.782 0-21.333-9.551-21.333-21.333s9.551-21.333 21.333-21.333 21.333 9.551 21.333 21.333-9.551 21.333-21.333 21.333zm0-85.333c-11.782 0-21.333-9.551-21.333-21.333s9.551-21.333 21.333-21.333 21.333 9.551 21.333 21.333c0 11.781-9.551 21.333-21.333 21.333z"/></svg>